<svg width="18" height="16" viewBox="0 0 18 16"  xmlns="http://www.w3.org/2000/svg">
<path fill-rule="evenodd" clip-rule="evenodd" d="M8.99999 15.3432C8.95971 15.3432 8.88921 15.2942 8.79858 15.2255C4.57904 12.5001 0.621338 8.56869 0.621338 4.92163C0.621338 2.31379 2.35346 0.578491 4.68982 0.578491C6.58307 0.578491 7.67068 1.72555 8.3152 2.70594C8.5871 3.0981 8.7583 3.20594 8.99999 3.20594C9.24168 3.20594 9.39274 3.08829 9.68478 2.70594C10.3796 1.74516 11.427 0.578491 13.3102 0.578491C15.6465 0.578491 17.3786 2.31379 17.3786 4.92163C17.3786 8.56869 13.4209 12.5001 9.21147 15.2255C9.11076 15.2942 9.04027 15.3432 8.99999 15.3432Z"/>
</svg>
